<svg xmlns="http://www.w3.org/2000/svg" viewBox="0 0 342.68 80"><defs><style>.cls-1{fill:#ff5000;}.cls-2{fill:#606a70;}</style></defs><title>Asset 1</title><g id="Layer_2" data-name="Layer 2"><g id="Layer_1-2" data-name="Layer 1"><path class="cls-1" d="M95.06,78.88H88.28V56.75c0-6.25-2-9.41-8.5-9.41-3.79,0-10.47,2.2-10.47,12V78.88h-6.5v-36H69V48h.15a14.65,14.65,0,0,1,12-6.12c6.14,0,13.88,2.27,13.88,12.52Z"/><path class="cls-1" d="M140.31,67.5a15.35,15.35,0,0,1-7,9.9c-1.82,1.1-4.39,2.47-10.73,2.47-11.12,0-17.69-7.63-17.69-18,0-11.13,5.9-20,19-20,11.41,0,17,8.25,17,21H112c0,7.43,3.86,11.75,11.49,11.75,6.27,0,10-4.4,10.2-7.15ZM134,58c-.38-5.57-2.95-10.72-11-10.72A11,11,0,0,0,112,58Z"/><path class="cls-1" d="M150.84,54c.3-8.59,6.5-12,16.14-12,3.14,0,14.5.83,14.5,10V72.71a1.9,1.9,0,0,0,2.17,2.13,13.3,13.3,0,0,0,2.17-.28V79a13.1,13.1,0,0,1-3.59.69c-5.83,0-6.73-2.75-7-5.5A18.41,18.41,0,0,1,161.15,80c-7.18,0-12.26-4.19-12.26-10.38,0-3,1-10,11.88-11.27l10.84-1.24c1.57-.14,3.44-.69,3.44-4.26,0-3.78-3-5.84-9.19-5.84-7.47,0-8.52,4.19-9,6.94Zm23.87,6.54c-1.06.75-2.72,1.31-11,2.27-3.25.41-8.47,1.31-8.47,5.84,0,3.92,2.19,6.25,7.18,6.25,6.2,0,12.25-3.64,12.25-8.45Z"/><path class="cls-1" d="M202.07,78.88h-6.5v-36h6.23v6h.15c2.65-4.18,6.13-7,11.12-7a5.82,5.82,0,0,1,1.74.21v6.24h-2.52c-6.25,0-10.22,4.41-10.22,9.65Z"/><path class="cls-2" d="M244.07,53.14c-.07-2.25-1-6-9.33-6-2,0-7.82.62-7.82,5.06,0,2.94,2,3.62,7.15,4.79l6.62,1.51c8.2,1.84,11.06,4.58,11.06,9.44,0,7.39-6.7,11.83-15.58,11.83-15.57,0-16.7-8.21-16.93-12.52h6.39c.23,2.81,1.13,7.32,10.46,7.32,4.74,0,9-1.71,9-5.68,0-2.87-2.18-3.83-7.82-5.13L229.62,62c-5.49-1.23-9.1-3.76-9.1-8.69,0-7.87,7.15-11.42,14.9-11.42,14.07,0,15,9.44,15,11.22Z"/><path class="cls-2" d="M277.45,41.87c12.62,0,18.37,9.69,18.37,19s-5.75,19-18.37,19-18.37-9.69-18.37-19S264.82,41.87,277.45,41.87Zm0,32.72c9.52,0,11.49-8.94,11.49-13.75s-2-13.75-11.49-13.75S266,56,266,60.84,267.92,74.58,277.45,74.58Z"/><path class="cls-2" d="M313.69,48V78.88h-6.77V48H301.5V42.85h5.42V36.66c0-5.43,3.77-7.9,10.26-7.9,1,0,2,.07,3,.14V34.1c-.81-.07-1.85-.14-2.66-.14-2.81,0-3.84,1.34-3.84,4.3v4.58h6.5V48Z"/><path class="cls-2" d="M336.45,48V71.18c0,2.82,2.64,2.82,4,2.82h2.23v4.74c-2.42.21-4.31.48-5,.48-6.58,0-8-3.37-8-7.7V48h-5.42V42.85h5.42v-10h6.77v10h6.23V48Z"/><path class="cls-1" d="M54.88,24.2a8.3,8.3,0,0,0-5.08-1.68H43.51l-2.7,2.67v0h8.89a5.64,5.64,0,0,1,3.45,1.11,2.92,2.92,0,0,1,1.25,2.27c0,1.83-2.15,3.39-4.7,3.39H41.15L44,34.72h5.84c4.07,0,7.38-2.74,7.38-6.1A5.7,5.7,0,0,0,54.88,24.2Z"/><path class="cls-1" d="M32,40.4l-.11,0V50c0,2.51-1.55,4.63-3.39,4.63S25.16,52.5,25.16,50V40.63L22.45,43.3v6.76c0,4,2.73,7.32,6.09,7.32s6.1-3.28,6.1-7.32V42.9Z"/><path class="cls-1" d="M28.54,0a5.68,5.68,0,0,0-4.41,2.26,8.13,8.13,0,0,0-1.68,5.06V14l2.7,2.61h0V7.4A5.58,5.58,0,0,1,26.25,4a3,3,0,0,1,2.29-1.24c1.83,0,3.39,2.12,3.39,4.64v9l2.71-2.67V7.32C34.64,3.28,31.9,0,28.54,0Z"/><path class="cls-1" d="M16.26,32H7.46c-2.54,0-4.7-1.56-4.7-3.39A2.94,2.94,0,0,1,4,26.35a5.65,5.65,0,0,1,3.45-1.11h8.92l-2.81-2.71H7.37A8.22,8.22,0,0,0,2.3,24.2,5.68,5.68,0,0,0,0,28.62c0,3.36,3.31,6.1,7.37,6.1h6.14Z"/><path class="cls-2" d="M48.61,39.2,44,34.76l-2.93-2.83-.31-.3a4.41,4.41,0,0,1-1.38-3.18,4.46,4.46,0,0,1,1.31-3.17l0,0,2.84-2.8,4.34-4.29a7.92,7.92,0,0,0,2.48-5.6,5.52,5.52,0,0,0-1.64-4C46.3,6.2,42,6.62,39,9.49l-4.26,4.2L32,16.48l-.1.1a4.78,4.78,0,0,1-6.63,0h0L22.39,13.9,17.5,9.18C14.55,6.35,10.2,6,7.8,8.34a5.42,5.42,0,0,0-1.57,4,7.9,7.9,0,0,0,2.55,5.57l4.72,4.56,2.94,2.84,0,0a4.45,4.45,0,0,1,0,6.39l-.21.21-2.87,2.83-4.1,4.05A7.93,7.93,0,0,0,6.88,44.4a5.5,5.5,0,0,0,1.64,4c2.46,2.36,6.8,1.94,9.7-.93l4.17-4.11,2.83-2.79.2-.2A4.79,4.79,0,0,1,32,40.24l.11.1L34.79,43l5.11,4.93c2.94,2.83,7.29,3.21,9.69.84a5.41,5.41,0,0,0,1.58-4A7.91,7.91,0,0,0,48.61,39.2Zm-1,7.52c-1.29,1.28-3.93.88-5.73-.87L34,38.29a7.64,7.64,0,0,0-10.6.07l-7.19,7.09c-1.8,1.77-4.43,2.18-5.76.91a2.8,2.8,0,0,1-.78-2,5.2,5.2,0,0,1,1.64-3.56l7.18-7.09a7.3,7.3,0,0,0-.06-10.45l-7.72-7.44a5.2,5.2,0,0,1-1.69-3.56,2.65,2.65,0,0,1,.73-1.93c1.3-1.28,3.93-.88,5.73.86l7.72,7.44a7.64,7.64,0,0,0,10.61-.06L41,11.5c1.79-1.77,4.42-2.18,5.76-.9a2.74,2.74,0,0,1,.76,2,5.15,5.15,0,0,1-1.62,3.56l-7.18,7.09a7.27,7.27,0,0,0,.06,10.45l7.85,7.56a5.17,5.17,0,0,1,1.68,3.56A2.61,2.61,0,0,1,47.61,46.72Z"/></g></g></svg>